<?xml version="1.0" encoding="utf-8"?>
<!-- Generator: Adobe Illustrator 26.1.0, SVG Export Plug-In . SVG Version: 6.00 Build 0)  -->
<svg version="1.1" id="Слой_1" xmlns="http://www.w3.org/2000/svg" xmlns:xlink="http://www.w3.org/1999/xlink" x="0px" y="0px"
	 viewBox="0 0 1000 1000" style="enable-background:new 0 0 1000 1000;" xml:space="preserve">
<style type="text/css">
	.st0{fill:#FFFFFF;}
	.st1{fill:#010202;}
	.st2{fill:#FDFDFD;}
</style>
<circle class="st0" cx="500.17" cy="499.83" r="499.83"/>
<circle class="st1" cx="500.17" cy="499.83" r="467.56"/>
<g>
	<path class="st2" d="M512.37,519.65c0,9.24-3.93,13.86-11.77,13.86c-3.24,0-7.62-1.04-13.17-3.12c-5.54-2.08-10.51-4.96-14.89-8.66
		c-4.39-3.69-6.58-7.85-6.58-12.47c0-2.31,0.23-4.16,0.69-5.54c0.92-5.08,1.84-10.39,2.77-15.93c0.92-5.54,1.39-11.54,1.39-18.01
		l2.07-118.46l-193.97,11.08c-4.62,15.71-9.82,31.41-15.59,47.11c-5.78,15.71-12.36,31.41-19.74,47.11
		c-2.32,6.47-6.24,9.7-11.78,9.7c-0.46,0-3.12-0.92-7.97-2.77c-4.85-1.84-9.7-4.5-14.55-7.97c-4.85-3.46-7.27-7.27-7.27-11.43
		c0-2.77,1.15-6,3.46-9.7c11.08-20.32,20.89-40.98,29.44-62c8.54-21.01,15.81-44.22,21.82-69.62c0.92-4.16,2.19-7.27,3.81-9.35
		c1.62-2.08,4.5-3.12,8.66-3.12c6,0,11.54,0.93,16.63,2.77c5.08,1.85,7.62,5.31,7.62,10.39c0,0.93,0,2.08,0,3.46
		c0,1.39-0.24,2.77-0.69,4.16l-4.16,16.63l184.27-11.08l1.39-51.26l-115.69,6.93c-3.23,0.46-6.23,0.69-9,0.69c-2.77,0-5.32,0-7.62,0
		c-6.92,0-12.93-1.84-18.01-5.54c-0.93-0.92-4.05-4.38-9.35-10.39c-5.31-6-7.97-12.47-7.97-19.4c0-2.77,1.15-4.16,3.47-4.16
		c0.45,0,1.04,0.12,1.73,0.35c0.69,0.24,1.27,0.35,1.73,0.35c7.85,1.85,17.08,2.77,27.71,2.77h9.7l283.34-18.01
		c4.61-0.45,9-0.92,13.16-1.39c4.16-0.45,8.08-1.15,11.78-2.08c4.15-1.39,7.62-2.08,10.39-2.08c4.16,0,8.89,1.73,14.2,5.2
		c5.3,3.46,10.05,7.39,14.2,11.78c4.16,4.39,6.24,8.43,6.24,12.12c0,3.24-1.28,5.54-3.81,6.93c-2.54,1.39-5.66,2.32-9.35,2.77
		l-173.89,10.39l-1.38,51.96l249.39-15.24c1.84,0,3.46-0.11,4.85-0.35c1.38-0.23,2.53-0.35,3.46-0.35c6.93,0,14.08,2.89,21.48,8.66
		c7.38,5.78,11.08,11.2,11.08,16.28c0,3.7-1.73,6.7-5.2,9.01c-3.46,2.32-5.88,4.62-7.27,6.93c-21.71,29.1-40.76,51.38-57.15,66.85
		c-16.4,15.48-27.13,23.21-32.21,23.21c-2.32,0-3.46-1.61-3.46-4.85c0-4.16,2.3-10.15,6.92-18.01c7.85-12,14.9-23.66,21.13-34.98
		c6.24-11.31,11.89-23.21,16.98-35.68l-230.69,13.16L512.37,519.65z M347.49,802.29v1.39c0,8.77-3.93,13.16-11.78,13.16
		c-2.77,0-6.93-1.28-12.47-3.81c-5.54-2.54-10.74-6.13-15.59-10.74c-4.85-4.62-7.27-9.94-7.27-15.93v-3.46
		c0.46-5.09,0.8-10.39,1.04-15.93c0.23-5.54,0.34-11.32,0.34-17.32c0-3.69,0-7.38,0-11.08c0-3.69-0.24-7.16-0.69-10.39l-8.31-129.55
		c-1.39-18.93-4.85-34.64-10.39-47.11c-2.32-4.61-3.46-8.08-3.46-10.39c0-3.69,2.53-5.54,7.62-5.54c3.69,0,9.24,1.04,16.63,3.12
		c7.38,2.08,17.32,5.66,29.79,10.74l335.29-13.16h6.24c11.54,0,19.74,3.58,24.59,10.74c4.85,7.17,7.28,11.9,7.28,14.2
		c0,2.77-0.7,5.31-2.08,7.62c-1.39,2.32-2.32,5.09-2.77,8.31L679.32,734.4c14.31,12.47,21.48,21.7,21.48,27.71
		c0,3.23-1.85,5.54-5.55,6.93c-3.7,1.39-8.08,2.3-13.16,2.77l-335.99,7.62L347.49,802.29z M363.08,457.3
		c19.62,2.77,37.75,6.47,54.38,11.08c10.15,2.32,15.24,6.47,15.24,12.47c0,2.77-0.24,4.85-0.69,6.23
		c-1.85,12.47-6.47,18.7-13.86,18.7c-1.38,0-2.66-0.11-3.81-0.35c-1.16-0.23-2.66-0.57-4.5-1.04c-16.63-4.61-34.29-8.77-53-12.47
		c-18.71-3.69-36.61-6.46-53.69-8.31c-10.16-1.39-15.24-5.54-15.24-12.47c0-5.08,0.92-9.81,2.77-14.2c1.84-4.38,5.3-6.58,10.39-6.58
		h5.54C324.63,452.22,343.44,454.53,363.08,457.3z M419.88,439.63c-1.16-0.23-2.42-0.57-3.81-1.04c-16.17-5.08-33.6-9.7-52.3-13.85
		c-18.71-4.16-35.45-7.16-50.23-9.01c-9.24-1.39-13.86-5.3-13.86-11.78c0-0.92,0-2.08,0-3.46c0-1.39,0.23-2.77,0.7-4.16
		c1.38-8.31,5.3-12.47,11.77-12.47c0.92,0,1.96,0.12,3.12,0.35c1.15,0.24,2.19,0.35,3.12,0.35c15.7,1.85,33.13,4.28,52.3,7.27
		c19.16,3.01,37.29,6.82,54.38,11.43c8.31,1.85,12.47,6.23,12.47,13.16c0,4.62-1.04,9.7-3.12,15.24c-2.07,5.54-5.89,8.31-11.43,8.31
		C422.07,439.98,421.04,439.87,419.88,439.63z M333.64,584.77l3.47,58.88l135.78-4.85l0.7-60.27L333.64,584.77z M339.87,677.6
		l4.15,65.81l127.47-2.77l0.69-67.89L339.87,677.6z M510.98,670.67l-0.69,68.58l128.85-2.77l8.31-70.66L510.98,670.67z
		 M512.37,577.15l-0.69,60.27l139.24-4.85l6.93-61.65L512.37,577.15z M665.82,499.21c-1.16-0.23-2.66-0.57-4.5-1.04
		c-17.1-4.61-35.92-9.01-56.46-13.16c-20.55-4.16-39.6-7.15-57.15-9.01c-4.62-0.92-8.32-2.19-11.09-3.81
		c-2.77-1.61-4.16-4.73-4.16-9.35c0-2.31,0.23-4.16,0.7-5.54c0.92-6,2.31-10.05,4.15-12.12c1.84-2.08,4.61-3.12,8.32-3.12
		c0.92,0,1.84,0.12,2.77,0.35c0.92,0.24,1.84,0.35,2.77,0.35c20.78,1.85,41.33,4.4,61.66,7.62c20.32,3.24,38.8,6.93,55.42,11.08
		c9.7,2.77,14.55,7.39,14.55,13.86c0,2.77-0.24,4.85-0.69,6.23c-2.32,12.02-6.7,18.01-13.16,18.01
		C668,499.56,666.96,499.45,665.82,499.21z M668.93,431.32c-1.39-0.23-2.77-0.57-4.16-1.04c-15.71-5.08-33.72-9.7-54.04-13.85
		c-20.33-4.16-37.87-6.93-52.65-8.31c-10.16-1.39-15.24-5.54-15.24-12.47c0-10.15,1.84-16.04,5.54-17.67
		c3.69-1.61,6.23-2.42,7.62-2.42c0.92,0,1.96,0.12,3.12,0.35c1.15,0.24,2.42,0.35,3.81,0.35c18.01,1.85,36.72,4.5,56.11,7.97
		c19.4,3.46,37.41,7.27,54.04,11.43c4.16,0.93,7.38,2.32,9.7,4.16c2.31,1.85,3.47,4.85,3.47,9.01c0,1.85-0.81,6.13-2.43,12.82
		c-1.62,6.7-5.19,10.04-10.74,10.04C671.7,431.67,670.32,431.56,668.93,431.32z"/>
</g>
</svg>
